<svg xmlns="http://www.w3.org/2000/svg" width="512" height="512" fill="none" viewBox="0 0 512 512"><g clip-path="url(#a)"><path fill="#f8c702" d="M259 381h253v131H259z"/><path fill="url(#b)" d="M0 0h512v381H0z"/><path fill="#ec87c9" d="M0 188h132v324H0z"/><g clip-path="url(#c)"><circle cx="526.5" cy="-1.5" r="163.5" stroke="#fff" stroke-width="86"/><path fill="#d2d1d6" stroke="#cac9ce" stroke-width="8" d="M526.5-193.802c106.206 0 192.302 86.097 192.302 192.302 0 106.206-86.096 192.302-192.302 192.302S334.197 104.706 334.197-1.5 420.294-193.802 526.5-193.802Zm0 58.284c-74.016 0-134.019 60.002-134.019 134.018.001 74.017 60.003 134.019 134.019 134.019S660.518 72.517 660.519-1.5c0-74.016-60.003-134.018-134.019-134.018Z"/></g><path fill="#f0eff5" stroke="#fff" stroke-width="10" d="M275.801-2v233.121l2.279 1.479 267.119 173.238L475.377 513.5-63.084 164.285 6.739 56.623l88.989 57.713c8.649 5.609 20.073-.599 20.073-10.907V-2z"/><path fill="url(#d)" stroke="#fff" stroke-width="15" d="M252.5-7.5v256h-113v-256z"/><path fill="#eae9ee" d="M132 256h128v256H132z"/><g filter="url(#e)"><circle cx="196" cy="317" r="119" fill="url(#f)" stroke="#fff" stroke-width="20"/><path fill="#fff" d="M208.22 239.518c-4.146-11.357-20.293-11.357-24.439 0l-45.974 130.873c-3.098 8.817 7.633 15.929 14.546 9.641L196 340.336l43.647 39.696c6.913 6.288 17.644-.824 14.547-9.641z"/></g></g><defs><linearGradient id="b" x1="256" x2="256" y1="0" y2="381" gradientUnits="userSpaceOnUse"><stop stop-color="#7fed7d"/><stop offset="1" stop-color="#2ed058"/></linearGradient><linearGradient id="d" x1="196" x2="196" y1="-15" y2="256" gradientUnits="userSpaceOnUse"><stop stop-color="#318df8"/><stop offset="1" stop-color="#4081fa"/></linearGradient><linearGradient id="f" x1="196" x2="196" y1="188" y2="446" gradientUnits="userSpaceOnUse"><stop stop-color="#4c87fb"/><stop offset="1" stop-color="#2d76f6"/></linearGradient><clipPath id="a"><rect width="512" height="512" fill="#fff" rx="112"/></clipPath><clipPath id="c"><path fill="#fff" d="M320 0h192v205H320z"/></clipPath><filter id="e" width="378" height="378" x="7" y="143" color-interpolation-filters="sRGB" filterUnits="userSpaceOnUse"><feFlood flood-opacity="0" result="BackgroundImageFix"/><feColorMatrix in="SourceAlpha" result="hardAlpha" values="0 0 0 0 0 0 0 0 0 0 0 0 0 0 0 0 0 0 127 0"/><feOffset dy="15"/><feGaussianBlur stdDeviation="30"/><feComposite in2="hardAlpha" operator="out"/><feColorMatrix values="0 0 0 0 0 0 0 0 0 0 0 0 0 0 0 0 0 0 0.25 0"/><feBlend in2="BackgroundImageFix" result="effect1_dropShadow_118_36"/><feBlend in="SourceGraphic" in2="effect1_dropShadow_118_36" result="shape"/></filter></defs></svg>